<svg width="86" height="86" viewBox="0 0 86 86" fill="none" xmlns="http://www.w3.org/2000/svg">
<g filter="url(#filter0_d_785_14333)">
<circle cx="43" cy="43" r="35" fill="#8E8E8E"/>
</g>
<circle cx="42.9999" cy="43" r="15.9091" fill="#9F9F9F"/>
<g clip-path="url(#clip0_785_14333)">
<path d="M33.4541 39.1819C33.4541 38.1319 34.3132 37.2728 35.3632 37.2728H38.2268L40.1359 35.3637H45.8632L47.7723 37.2728H50.6359C51.1422 37.2728 51.6278 37.474 51.9859 37.832C52.3439 38.19 52.545 38.6756 52.545 39.1819V48.7274C52.545 49.2337 52.3439 49.7193 51.9859 50.0773C51.6278 50.4353 51.1422 50.6365 50.6359 50.6365H35.3632C34.8569 50.6365 34.3713 50.4353 34.0133 50.0773C33.6552 49.7193 33.4541 49.2337 33.4541 48.7274V39.1819ZM42.9996 48.7274C44.2654 48.7274 45.4793 48.2245 46.3744 47.3295C47.2694 46.4344 47.7723 45.2205 47.7723 43.9546C47.7723 42.6888 47.2694 41.4749 46.3744 40.5798C45.4793 39.6848 44.2654 39.1819 42.9996 39.1819C41.7338 39.1819 40.5198 39.6848 39.6247 40.5798C38.7297 41.4749 38.2268 42.6888 38.2268 43.9546C38.2268 45.2205 38.7297 46.4344 39.6247 47.3295C40.5198 48.2245 41.7338 48.7274 42.9996 48.7274ZM42.9996 46.8183C42.6235 46.8183 42.2511 46.7442 41.9037 46.6003C41.5563 46.4564 41.2406 46.2455 40.9747 45.9795C40.7087 45.7136 40.4978 45.3979 40.3539 45.0505C40.21 44.7031 40.1359 44.3307 40.1359 43.9546C40.1359 43.5786 40.21 43.2062 40.3539 42.8588C40.4978 42.5113 40.7087 42.1957 40.9747 41.9297C41.2406 41.6638 41.5563 41.4529 41.9037 41.309C42.2511 41.1651 42.6235 41.091 42.9996 41.091C43.759 41.091 44.4874 41.3927 45.0245 41.9297C45.5615 42.4668 45.8632 43.1952 45.8632 43.9546C45.8632 44.7141 45.5615 45.4425 45.0245 45.9795C44.4874 46.5166 43.759 46.8183 42.9996 46.8183Z" fill="white"/>
</g>
<defs>
<filter id="filter0_d_785_14333" x="0" y="0" width="86" height="86" filterUnits="userSpaceOnUse" color-interpolation-filters="sRGB">
<feFlood flood-opacity="0" result="BackgroundImageFix"/>
<feColorMatrix in="SourceAlpha" type="matrix" values="0 0 0 0 0 0 0 0 0 0 0 0 0 0 0 0 0 0 127 0" result="hardAlpha"/>
<feOffset/>
<feGaussianBlur stdDeviation="4"/>
<feComposite in2="hardAlpha" operator="out"/>
<feColorMatrix type="matrix" values="0 0 0 0 0 0 0 0 0 0 0 0 0 0 0 0 0 0 0.72 0"/>
<feBlend mode="normal" in2="BackgroundImageFix" result="effect1_dropShadow_785_14333"/>
<feBlend mode="normal" in="SourceGraphic" in2="effect1_dropShadow_785_14333" result="shape"/>
</filter>
<clipPath id="clip0_785_14333">
<rect width="19.0909" height="19.0909" fill="white" transform="translate(33.4541 33.4547)"/>
</clipPath>
</defs>
</svg>
