<svg width="20" height="20" viewBox="0 0 20 20" fill="none" xmlns="http://www.w3.org/2000/svg">
  <g clip-path="url(#clip0_826_5137)">
    <path d="M0.454102 6.18195C0.454102 5.13195 1.31319 4.27286 2.36319 4.27286H5.22683L7.13592 2.36377H12.8632L14.7723 4.27286H17.6359C18.1422 4.27286 18.6278 4.474 18.9859 4.83202C19.3439 5.19004 19.545 5.67563 19.545 6.18195V15.7274C19.545 16.2337 19.3439 16.7193 18.9859 17.0773C18.6278 17.4354 18.1422 17.6365 17.6359 17.6365H2.36319C1.85687 17.6365 1.37129 17.4354 1.01326 17.0773C0.655237 16.7193 0.454102 16.2337 0.454102 15.7274V6.18195ZM9.99956 15.7274C11.2654 15.7274 12.4793 15.2246 13.3744 14.3295C14.2694 13.4344 14.7723 12.2205 14.7723 10.9547C14.7723 9.68887 14.2694 8.47491 13.3744 7.57985C12.4793 6.68479 11.2654 6.18195 9.99956 6.18195C8.73375 6.18195 7.51979 6.68479 6.62473 7.57985C5.72967 8.47491 5.22683 9.68887 5.22683 10.9547C5.22683 12.2205 5.72967 13.4344 6.62473 14.3295C7.51979 15.2246 8.73375 15.7274 9.99956 15.7274ZM9.99956 13.8183C9.6235 13.8183 9.25112 13.7442 8.90369 13.6003C8.55626 13.4564 8.24057 13.2455 7.97466 12.9796C7.70875 12.7137 7.49781 12.398 7.3539 12.0505C7.20999 11.7031 7.13592 11.3307 7.13592 10.9547C7.13592 10.5786 7.20999 10.2062 7.3539 9.85881C7.49781 9.51138 7.70875 9.19569 7.97466 8.92978C8.24057 8.66387 8.55626 8.45293 8.90369 8.30902C9.25112 8.16511 9.6235 8.09104 9.99956 8.09104C10.759 8.09104 11.4874 8.39274 12.0245 8.92978C12.5615 9.46682 12.8632 10.1952 12.8632 10.9547C12.8632 11.7142 12.5615 12.4425 12.0245 12.9796C11.4874 13.5166 10.759 13.8183 9.99956 13.8183Z" fill="white" />
  </g>
  <defs>
    <clipPath id="clip0_826_5137">
      <rect width="19.0909" height="19.0909" fill="white" transform="translate(0.454102 0.454712)" />
    </clipPath>
  </defs>
</svg>
